<?xml version="1.0" ?><svg fill="none" height="24" viewBox="0 0 24 24" width="24" xmlns="http://www.w3.org/2000/svg"><path clip-rule="evenodd" d="M12.7664 4C13.5957 4 14.3127 4.48097 14.6536 5.17919C14.9607 5.0031 15.3157 4.90323 15.6915 4.90323C16.9592 4.90323 17.9346 6.02361 17.76 7.27931L17.1558 11.6245C17.8903 11.057 18.9388 11.0344 19.7042 11.6241C20.6638 12.3636 20.7941 13.7622 19.9876 14.6662L15.9297 19.2141C15.7758 19.3867 15.5726 19.4953 15.3568 19.5333C14.8912 19.8289 14.3388 20 13.7495 20H11.3325C8.29493 20 5.8325 17.5376 5.8325 14.5V12.2796L5.50556 8.58474C5.39491 7.33433 6.38016 6.25806 7.63546 6.25806C7.83555 6.25806 8.03008 6.28576 8.21504 6.33781C8.49101 5.5088 9.27313 4.90323 10.2049 4.90323C10.468 4.90323 10.7204 4.95187 10.9532 5.0409C11.3174 4.41825 11.993 4 12.7664 4Z" fill="black" fill-rule="evenodd"/><path clip-rule="evenodd" d="M19.5 8C19.5 8.40327 19.3175 8.85258 18.862 9.22992L20.138 10.7701C21.0158 10.0428 21.5 9.04444 21.5 8C21.5 6.95555 21.0158 5.95715 20.138 5.22992L18.862 6.77007C19.3175 7.14741 19.5 7.59673 19.5 8Z" fill="black" fill-rule="evenodd"/><path clip-rule="evenodd" d="M4.5 8.5C4.5 8.90327 4.68246 9.35258 5.13795 9.72992L3.86205 11.2701C2.98421 10.5428 2.5 9.54444 2.5 8.5C2.5 7.45555 2.98421 6.45715 3.86205 5.72992L5.13795 7.27007C4.68246 7.64741 4.5 8.09673 4.5 8.5Z" fill="black" fill-rule="evenodd"/></svg>