<?xml version="1.0" ?><svg id="Layer_1" style="enable-background:new 0 0 66 66;" version="1.1" viewBox="0 0 66 66" xml:space="preserve" xmlns="http://www.w3.org/2000/svg" xmlns:xlink="http://www.w3.org/1999/xlink"><g><path d="M14.3,7.5c0,3.3-2.7,6-6,6c-3.3,0-6-2.7-6-6s2.7-6,6-6C11.6,1.5,14.3,4.2,14.3,7.5z"/><path d="M49,9.6c0,3.3-2.7,6-6,6c-3.3,0-6-2.7-6-6s2.7-6,6-6C46.3,3.6,49,6.2,49,9.6z"/><path d="M65,29.4c-0.3-1-1.9-2.6-3.9-3.4c-1.5-0.6-3.9-1.1-6.5,0.3c-0.4,0.2-0.7,0.5-1.1,0.8c-0.3-1-1-2-2-2.5l-12.6-8.9   c0,0,0,0,0,0c0,0,0,0,0,0c-1.1-0.6-2.3-0.9-3.6-0.9h-0.1c-3.7,0.4-6.6,2.7-8.5,6.6l-15.2-5.9h0c-1-0.4-2-0.7-3.1-0.7   C4.3,14.7,1,18,1,22v17.8c0,0,0,0,0,0l0,0l0.7,20.8c0.1,2.1,1.8,3.8,3.9,3.8h0.1c2.1,0,3.9-1.7,3.9-3.8l0.2-7.2l5,7.4   c0.7,1,1.9,1.6,3.2,1.6c1.4,0,2.6-0.7,3.3-1.8c0.7-1.1,0.8-2.6,0.2-3.8l-7.6-17.1L15.3,26l9.1,2.6c0,0,0,0,0,0   C23.5,34.3,24,39.7,24,39.9c0,0,0,0,0,0l0.7,20.7c0.1,2.1,1.8,3.8,3.9,3.8h0.1c2.1,0,3.9-1.7,3.9-3.8l0.2-7.2l5,7.4   c0.7,1,1.9,1.6,3.2,1.6c1.4,0,2.6-0.7,3.3-1.8c0.7-1.1,0.8-2.6,0.2-3.8l-7.6-17.1c0.7-5.9,2.2-10.3,4.3-13.1l6,4.2   c-0.2,0-0.4,0.1-0.6,0.1c-0.3,0-0.7,0.2-0.8,0.6c-0.2,0.3-0.1,0.7,0.1,1c0.9,1.4,2.2,2.3,3.7,2.7c0.5,0.1,1.1,0.2,1.6,0.2v25.3   c0,1.9,1.6,3.5,3.5,3.5c1.9,0,3.5-1.6,3.5-3.5V33c0-1,0.8-1.8,1.8-1.9l4-0.5c0.3,0,0.6-0.2,0.7-0.4C65,30,65,29.7,65,29.4z    M19.9,57.6c0.3,0.6,0.2,1.3-0.1,1.9c-0.4,0.6-1,0.9-1.6,0.9c-0.6,0-1.2-0.3-1.5-0.8L3.9,40.8h8.5L19.9,57.6z M25.1,26.7   C25.1,26.7,25,26.7,25.1,26.7l-10.3-2.9l-2.3-1c-0.5-0.2-1.1,0-1.3,0.5c-0.2,0.5,0,1.1,0.5,1.3l1.7,0.7l-1.2,13.5H3V22   c0-2.9,2.4-5.3,5.3-5.3c0.9,0,1.8,0.2,2.6,0.7c0.1,0.1,0.3,0.1,0.4,0.1l15.3,5.9c0.1,0,0.1,0.1,0.2,0.1c0,0,0,0,0,0c0,0,0,0,0,0   c0.6,0.4,0.9,1.2,0.7,1.9c-0.1,0.5-0.5,0.9-0.9,1.1C26.1,26.9,25.6,26.9,25.1,26.7z M42.9,57.6c0.3,0.6,0.2,1.3-0.1,1.9   c-0.4,0.6-1,0.9-1.6,0.9c-0.6,0-1.2-0.3-1.5-0.8L26.9,40.8h8.5L42.9,57.6z M39.6,22.9c-0.4-0.3-1.1-0.2-1.4,0.2   c-0.3,0.4-0.2,1.1,0.2,1.4l1.3,0.9c-2.3,3-3.8,7.4-4.6,13.4H26c-0.1-1.8-0.2-5.9,0.5-10.1c0.4-0.1,0.7-0.2,1-0.3   c1-0.5,1.7-1.4,2-2.4c0.4-1.3-0.1-2.7-1-3.7c1.6-3.3,3.9-5.2,6.9-5.6c0.9,0,1.7,0.2,2.5,0.7l12.6,8.9c0.1,0,0.1,0.1,0.1,0.1   c0.8,0.4,1.2,1.2,1,2.1c-0.1,0.5-0.5,0.9-0.9,1.1c-0.4,0.2-0.9,0.3-1.4,0.1L39.6,22.9z"/></g></svg>